<svg width="75" height="75" viewBox="0 0 75 75" fill="none" xmlns="http://www.w3.org/2000/svg">
<path d="M65.625 67.9688C65.3172 67.9693 65.0123 67.9089 64.7279 67.7909C64.4436 67.673 64.1854 67.5 63.9683 67.2818L7.71825 11.0318C7.29727 10.5887 7.06604 9.99864 7.07386 9.38748C7.08169 8.77632 7.32795 8.19239 7.76014 7.7602C8.19233 7.32801 8.77626 7.08175 9.38742 7.07392C9.99858 7.0661 10.5886 7.29733 11.0317 7.71831L67.2817 63.9683C67.6093 64.2961 67.8323 64.7136 67.9227 65.1681C68.013 65.6226 67.9666 66.0937 67.7893 66.5218C67.612 66.95 67.3118 67.3159 66.9265 67.5735C66.5413 67.831 66.0884 67.9686 65.625 67.9688Z" fill="#fff"/>
<path d="M5.67188 28.8253C1.96143 32.2091 0 36.8292 0 42.1876C0 47.461 2.10645 52.2774 5.93115 55.7506C9.61523 59.0963 14.584 60.9376 19.9219 60.9376H48.1641C48.396 60.9378 48.6227 60.8692 48.8156 60.7404C49.0085 60.6116 49.1588 60.4286 49.2476 60.2143C49.3364 60.0001 49.3596 59.7643 49.3143 59.5369C49.269 59.3094 49.1572 59.1005 48.9932 58.9366L14.7773 24.7208C14.627 24.5702 14.4385 24.4633 14.2321 24.4117C14.0256 24.3601 13.809 24.3657 13.6055 24.4278C10.5469 25.3639 7.82227 26.8624 5.67188 28.8253Z" fill="#fff"/>
<path d="M69.813 57.3091C73.207 54.6064 75 50.5942 75 45.7031C75 37.27 68.8477 32.4346 62.1738 30.9448C61.7348 30.8448 61.3339 30.6204 61.0191 30.2986C60.7042 29.9767 60.4888 29.571 60.3984 29.1299C59.2734 23.7568 56.8169 19.147 53.1943 15.6533C48.978 11.5999 43.3487 9.34797 37.5 9.375C32.9414 9.375 28.6934 10.6934 25.1045 13.1982C24.9624 13.2955 24.8434 13.4228 24.7561 13.5712C24.6688 13.7197 24.6152 13.8855 24.5993 14.057C24.5833 14.2284 24.6054 14.4013 24.6638 14.5633C24.7223 14.7253 24.8157 14.8724 24.9375 14.9941L67.6289 57.6855C67.8227 57.8794 68.0783 57.9992 68.3513 58.0241C68.6243 58.049 68.8974 57.9774 69.123 57.8218C69.3603 57.6577 69.5903 57.4868 69.813 57.3091Z" fill="#fff"/>
</svg>