<svg width="75" height="75" viewBox="0 0 75 75" fill="none" xmlns="http://www.w3.org/2000/svg">
<path d="M21.0938 9.375C17.9857 9.375 15.005 10.6097 12.8073 12.8073C10.6097 15.005 9.375 17.9857 9.375 21.0938V35.1562H35.1562V9.375H21.0938Z" fill="#fff"/>
<path d="M35.1562 39.8438H9.375V53.9062C9.375 57.0143 10.6097 59.995 12.8073 62.1927C15.005 64.3904 17.9857 65.625 21.0938 65.625H35.1562V39.8438Z" fill="#fff"/>
<path d="M39.8438 39.8438H65.625V53.9062C65.625 57.0143 64.3904 59.995 62.1927 62.1927C59.995 64.3904 57.0143 65.625 53.9062 65.625H39.8438V39.8438Z" fill="#fff"/>
<path d="M65.625 35.1562V21.0938C65.625 17.9857 64.3904 15.005 62.1927 12.8073C59.995 10.6097 57.0143 9.375 53.9062 9.375H39.8438V35.1562H65.625Z" fill="#fff"/>
</svg>