<svg width="75" height="75" viewBox="0 0 75 75" fill="none" xmlns="http://www.w3.org/2000/svg">
<path d="M62.3584 17.3218C55.8898 10.8918 47.1755 7.22746 38.0557 7.10243C28.9359 6.9774 20.1244 10.4015 13.482 16.6517C6.83953 22.9019 2.88611 31.489 2.45653 40.5995C2.02696 49.7101 5.15485 58.631 11.1797 65.4785L11.2061 65.5078C11.2544 65.5591 11.2998 65.6118 11.3526 65.6616C11.461 65.7847 11.584 65.9238 11.729 66.0689C12.2977 66.6734 12.9851 67.154 13.7481 67.4806C14.5112 67.8072 15.3334 67.9728 16.1633 67.967C16.9933 67.9612 17.8131 67.7842 18.5715 67.447C19.3299 67.1098 20.0106 66.6197 20.5708 66.0073C22.7266 63.6644 25.3449 61.7942 28.2604 60.515C31.1759 59.2357 34.325 58.5752 37.5088 58.5752C40.6926 58.5752 43.8417 59.2357 46.7572 60.515C49.6727 61.7942 52.291 63.6644 54.4468 66.0073C55.0112 66.6229 55.6973 67.1146 56.4616 67.4512C57.2259 67.7878 58.0518 67.9621 58.887 67.9629C59.7222 67.9637 60.5484 67.7911 61.3134 67.456C62.0784 67.1209 62.7654 66.6306 63.3311 66.0161L63.8013 65.5034L63.8277 65.4741C69.764 58.7708 72.918 50.0544 72.6458 41.1045C72.3735 32.1546 68.6956 23.6461 62.3628 17.3159L62.3584 17.3218ZM35.1563 18.75C35.1563 18.1284 35.4032 17.5323 35.8427 17.0927C36.2823 16.6532 36.8784 16.4063 37.5 16.4063C38.1216 16.4063 38.7178 16.6532 39.1573 17.0927C39.5968 17.5323 39.8438 18.1284 39.8438 18.75V23.4375C39.8438 24.0591 39.5968 24.6553 39.1573 25.0948C38.7178 25.5343 38.1216 25.7813 37.5 25.7813C36.8784 25.7813 36.2823 25.5343 35.8427 25.0948C35.4032 24.6553 35.1563 24.0591 35.1563 23.4375V18.75ZM18.75 44.5313H14.0625C13.4409 44.5313 12.8448 44.2843 12.4052 43.8448C11.9657 43.4053 11.7188 42.8091 11.7188 42.1875C11.7188 41.5659 11.9657 40.9698 12.4052 40.5302C12.8448 40.0907 13.4409 39.8438 14.0625 39.8438H18.75C19.3716 39.8438 19.9678 40.0907 20.4073 40.5302C20.8468 40.9698 21.0938 41.5659 21.0938 42.1875C21.0938 42.8091 20.8468 43.4053 20.4073 43.8448C19.9678 44.2843 19.3716 44.5313 18.75 44.5313ZM25.8985 30.586C25.459 31.0252 24.863 31.2719 24.2417 31.2719C23.6204 31.2719 23.0245 31.0252 22.585 30.586L19.27 27.2725C18.8304 26.8329 18.5835 26.2367 18.5835 25.615C18.5835 24.9933 18.8304 24.3971 19.27 23.9575C19.7096 23.518 20.3058 23.271 20.9275 23.271C21.5492 23.271 22.1454 23.518 22.585 23.9575L25.8985 27.2725C26.3377 27.712 26.5844 28.3079 26.5844 28.9292C26.5844 29.5506 26.3377 30.1465 25.8985 30.586ZM47.7686 33.9697L40.8106 45.0293C40.5259 45.4238 40.1797 45.77 39.7852 46.0547C38.8328 46.7191 37.6567 46.9811 36.5123 46.7839C35.3679 46.5866 34.3475 45.9459 33.6725 45.001C32.9975 44.056 32.7225 42.8829 32.907 41.7364C33.0915 40.5899 33.7208 39.5624 34.6582 38.877L45.7178 31.919C45.9692 31.7437 46.2683 31.6498 46.5747 31.6498C46.8812 31.6498 47.1803 31.7437 47.4317 31.919C47.7474 32.1469 47.9601 32.4906 48.0232 32.8748C48.0863 33.2591 47.9948 33.6528 47.7686 33.9697ZM52.4151 30.586C51.9719 31.0069 51.3819 31.2382 50.7707 31.2303C50.1596 31.2225 49.5757 30.9763 49.1435 30.5441C48.7113 30.1119 48.465 29.528 48.4572 28.9168C48.4494 28.3056 48.6806 27.7156 49.1016 27.2725L52.4151 23.9575C52.8546 23.518 53.4509 23.271 54.0725 23.271C54.6942 23.271 55.2904 23.518 55.73 23.9575C56.1696 24.3971 56.4165 24.9933 56.4165 25.615C56.4165 26.2367 56.1696 26.8329 55.73 27.2725L52.4151 30.586ZM60.9375 44.5313H56.25C55.6284 44.5313 55.0323 44.2843 54.5927 43.8448C54.1532 43.4053 53.9063 42.8091 53.9063 42.1875C53.9063 41.5659 54.1532 40.9698 54.5927 40.5302C55.0323 40.0907 55.6284 39.8438 56.25 39.8438H60.9375C61.5591 39.8438 62.1553 40.0907 62.5948 40.5302C63.0343 40.9698 63.2813 41.5659 63.2813 42.1875C63.2813 42.8091 63.0343 43.4053 62.5948 43.8448C62.1553 44.2843 61.5591 44.5313 60.9375 44.5313Z" fill="#fff"/>
</svg>